<?xml version="1.0" encoding="UTF-8" standalone="no"?>
<!-- Created with Inkscape (http://www.inkscape.org/) -->

<svg
   version="1.1"
   id="svg105"
   xml:space="preserve"
   width="486.08804"
   height="125.1384"
   viewBox="0 0 486.08804 125.13839"
   sodipodi:docname="cuprous_logo_master_cmyk.svg"
   inkscape:version="1.1.1 (c3084ef, 2021-09-22)"
   xmlns:inkscape="http://www.inkscape.org/namespaces/inkscape"
   xmlns:sodipodi="http://sodipodi.sourceforge.net/DTD/sodipodi-0.dtd"
   xmlns="http://www.w3.org/2000/svg"
   xmlns:svg="http://www.w3.org/2000/svg"><defs
     id="defs109"><clipPath
       clipPathUnits="userSpaceOnUse"
       id="clipPath119"><path
         d="M 0,146.734 H 425.197 V 0 H 0 Z"
         id="path117" /></clipPath><radialGradient
       fx="-0.20840099"
       fy="0.74607402"
       cx="0"
       cy="0"
       r="1"
       gradientUnits="userSpaceOnUse"
       gradientTransform="matrix(52.592773,-69.901779,-69.901764,-52.59277,81.689812,113.19627)"
       spreadMethod="pad"
       id="radialGradient165"><stop
         style="stop-opacity:1;stop-color:#6eccbf"
         offset="0"
         id="stop153" /><stop
         style="stop-opacity:1;stop-color:#6eccbf"
         offset="0.092323"
         id="stop155" /><stop
         style="stop-opacity:1;stop-color:#1aad8e"
         offset="0.238752"
         id="stop157" /><stop
         style="stop-opacity:1;stop-color:#2cb8a9"
         offset="0.410375"
         id="stop159" /><stop
         style="stop-opacity:1;stop-color:#1db3ad"
         offset="0.651274"
         id="stop161" /><stop
         style="stop-opacity:1;stop-color:#165570"
         offset="1"
         id="stop163" /></radialGradient><radialGradient
       fx="0"
       fy="0"
       cx="0"
       cy="0"
       r="1"
       gradientUnits="userSpaceOnUse"
       gradientTransform="matrix(52.592773,-69.901779,-69.901764,-52.59277,81.689812,113.19627)"
       spreadMethod="pad"
       id="radialGradient193"><stop
         style="stop-opacity:1;stop-color:#6eccbf"
         offset="0"
         id="stop181" /><stop
         style="stop-opacity:1;stop-color:#6eccbf"
         offset="0.092323"
         id="stop183" /><stop
         style="stop-opacity:1;stop-color:#1aad8e"
         offset="0.238752"
         id="stop185" /><stop
         style="stop-opacity:1;stop-color:#2cb8a9"
         offset="0.410375"
         id="stop187" /><stop
         style="stop-opacity:1;stop-color:#1db3ad"
         offset="0.651274"
         id="stop189" /><stop
         style="stop-opacity:1;stop-color:#165570"
         offset="1"
         id="stop191" /></radialGradient><radialGradient
       fx="0"
       fy="0"
       cx="0"
       cy="0"
       r="1"
       gradientUnits="userSpaceOnUse"
       gradientTransform="matrix(52.592773,-69.901779,-69.901764,-52.59277,81.689812,113.19627)"
       spreadMethod="pad"
       id="radialGradient221"><stop
         style="stop-opacity:1;stop-color:#6eccbf"
         offset="0"
         id="stop209" /><stop
         style="stop-opacity:1;stop-color:#6eccbf"
         offset="0.092323"
         id="stop211" /><stop
         style="stop-opacity:1;stop-color:#1aad8e"
         offset="0.238752"
         id="stop213" /><stop
         style="stop-opacity:1;stop-color:#2cb8a9"
         offset="0.410375"
         id="stop215" /><stop
         style="stop-opacity:1;stop-color:#1db3ad"
         offset="0.651274"
         id="stop217" /><stop
         style="stop-opacity:1;stop-color:#165570"
         offset="1"
         id="stop219" /></radialGradient></defs><sodipodi:namedview
     id="namedview107"
     pagecolor="#ffffff"
     bordercolor="#666666"
     borderopacity="1.0"
     inkscape:pageshadow="2"
     inkscape:pageopacity="0.0"
     inkscape:pagecheckerboard="0"
     showgrid="false"
     inkscape:zoom="0.41627764"
     inkscape:cx="241.42541"
     inkscape:cy="62.458315"
     inkscape:window-width="893"
     inkscape:window-height="486"
     inkscape:window-x="1762"
     inkscape:window-y="352"
     inkscape:window-maximized="0"
     inkscape:current-layer="g111" /><g
     id="g111"
     inkscape:groupmode="layer"
     inkscape:label="1_cuprous logo_master_cmyk"
     transform="matrix(1.3333333,0,0,-1.3333333,-41.289666,160.34933)"><g
       id="g113"><g
         id="g115"
         clip-path="url(#clipPath119)"><g
           id="g121"
           transform="translate(386.8993,91.9454)"><path
             d="m 0,0 c -1.181,1.55 -2.806,2.895 -4.871,4.039 -2.067,1.145 -4.317,1.717 -6.754,1.717 -2.14,0 -4.096,-0.443 -5.867,-1.329 -1.771,-0.885 -2.656,-2.362 -2.656,-4.427 0,-2.067 0.976,-3.526 2.934,-4.374 1.954,-0.848 4.814,-1.716 8.58,-2.601 1.992,-0.442 4.002,-1.034 6.033,-1.771 2.029,-0.738 3.875,-1.716 5.535,-2.934 1.661,-1.217 3.006,-2.732 4.041,-4.538 1.033,-1.809 1.55,-4.005 1.55,-6.587 0,-3.248 -0.609,-5.997 -1.828,-8.247 -1.217,-2.254 -2.842,-4.08 -4.871,-5.482 -2.031,-1.402 -4.39,-2.418 -7.085,-3.043 -2.694,-0.627 -5.479,-0.941 -8.358,-0.941 -4.134,0 -8.156,0.758 -12.067,2.27 -3.912,1.511 -7.16,3.67 -9.74,6.476 l 8.744,8.192 c 1.477,-1.921 3.394,-3.506 5.757,-4.762 2.362,-1.255 4.981,-1.881 7.86,-1.881 0.958,0 1.937,0.11 2.933,0.333 0.997,0.221 1.92,0.57 2.768,1.051 0.848,0.479 1.531,1.124 2.049,1.938 0.515,0.811 0.775,1.807 0.775,2.988 0,2.213 -1.017,3.8 -3.045,4.761 -2.031,0.958 -5.074,1.918 -9.134,2.877 -1.992,0.445 -3.93,1.015 -5.811,1.717 -1.882,0.7 -3.562,1.623 -5.037,2.767 -1.477,1.144 -2.658,2.564 -3.542,4.262 -0.887,1.697 -1.329,3.8 -1.329,6.31 0,2.952 0.609,5.498 1.826,7.64 1.217,2.139 2.824,3.891 4.816,5.257 1.993,1.365 4.243,2.381 6.752,3.045 2.51,0.663 5.094,0.996 7.75,0.996 3.836,0 7.583,-0.663 11.237,-1.992 3.652,-1.329 6.549,-3.36 8.689,-6.089 z"
             style="fill:#a7e1d6;fill-opacity:1;fill-rule:nonzero;stroke:none"
             id="path123" /></g><g
           id="g125"
           transform="translate(268.6277,64.7506)"><path
             d="m 0,0 c -8.38,0 -15.173,6.793 -15.173,15.173 0,8.38 6.793,15.173 15.173,15.173 8.38,0 15.173,-6.793 15.173,-15.173 C 15.173,6.793 8.38,0 0,0 m 0,43.67 c -15.738,0 -28.497,-12.759 -28.497,-28.497 0,-15.738 12.759,-28.497 28.497,-28.497 15.738,0 28.497,12.759 28.497,28.497 C 28.497,30.911 15.738,43.67 0,43.67"
             style="fill:#a7e1d6;fill-opacity:1;fill-rule:nonzero;stroke:none"
             id="path127" /></g><g
           id="g129"
           transform="translate(230.457,107.6912)"><path
             d="m 0,0 c -13.512,0 -24.465,-10.954 -24.465,-24.466 v -30.275 h 13.11 v 30 c 0,6.271 5.084,11.354 11.355,11.354 2.438,0 4.671,-0.799 6.521,-2.106 1.669,4.218 4.153,8.022 7.285,11.197 C 9.878,-1.595 5.131,0 0,0"
             style="fill:#a7e1d6;fill-opacity:1;fill-rule:nonzero;stroke:none"
             id="path131" /></g><g
           id="g133"
           transform="translate(337.8083,76.1683)"><path
             d="m 0,0 c 0,-6.271 -5.084,-11.355 -11.355,-11.355 -6.271,0 -11.355,5.084 -11.355,11.355 V 29.999 H -35.82 V -0.276 c 0,-13.512 10.953,-24.465 24.465,-24.465 13.512,0 24.465,10.953 24.465,24.465 V 29.999 H 0 Z"
             style="fill:#a7e1d6;fill-opacity:1;fill-rule:nonzero;stroke:none"
             id="path135" /></g><g
           id="g137"
           transform="translate(172.9643,108.4202)"><path
             d="m 0,0 v 0 h -13.609 v -13.324 h 13.61 v 10e-4 c 8.379,-10e-4 15.172,-6.794 15.172,-15.174 0,-8.38 -6.793,-15.173 -15.173,-15.173 -7.303,0 -13.397,5.162 -14.844,12.034 h -0.368 l -13.103,10e-4 h -0.182 v -50.377 h 13.285 v 29.43 c 4.402,-2.788 9.615,-4.411 15.212,-4.411 15.738,0 28.497,12.758 28.497,28.496 C 28.497,-12.758 15.738,0 0,0"
             style="fill:#a7e1d6;fill-opacity:1;fill-rule:nonzero;stroke:none"
             id="path139" /></g></g></g><g
       id="g141"><g
         id="g143"><g
           id="g149"><g
             id="g151"><path
               d="m 39.314,100.074 c -11.129,-11.129 -11.129,-29.172 0,-40.301 v 0 c 11.128,-11.128 29.172,-11.128 40.3,0 v 0 c 5.565,5.565 8.347,12.858 8.347,20.151 v 0 H 74.637 c 0,-3.884 -1.481,-7.766 -4.444,-10.729 v 0 c -5.925,-5.926 -15.532,-5.926 -21.458,0 v 0 c -5.926,5.925 -5.926,15.532 0,21.457 v 0 c 2.963,2.963 6.846,4.445 10.729,4.445 v 0 13.323 c -7.293,0 -14.586,-2.782 -20.15,-8.346"
               style="fill:url(#radialGradient165);stroke:none"
               id="path167" /></g></g></g></g><g
       id="g169"><g
         id="g171"><g
           id="g177"><g
             id="g179"><path
               d="M 91.214,108.42 V 75.893 c 0,-13.512 10.953,-24.466 24.465,-24.466 v 0 c 13.512,0 24.465,10.954 24.465,24.466 v 0 0.892 h -13.11 v -0.616 c 0,-6.271 -5.084,-11.355 -11.355,-11.355 v 0 c -6.271,0 -11.355,5.084 -11.355,11.355 v 0 32.251 z"
               style="fill:url(#radialGradient193);stroke:none"
               id="path195" /></g></g></g></g><g
       id="g197"><g
         id="g199"><g
           id="g205"><g
             id="g207"><path
               d="M 126.85,108.42 H 115.012 V 95.097 H 126.85 V 83.255 h 13.323 v 11.842 h 11.845 v 13.323 h -11.845 v 11.841 l -13.323,0.001 z"
               style="fill:url(#radialGradient221);stroke:none"
               id="path223" /></g></g></g></g></g></svg>
